<?xml version="1.0" encoding="iso-8859-1"?>
<svg version="1.1" id="Layer_1" xmlns="http://www.w3.org/2000/svg" xmlns:xlink="http://www.w3.org/1999/xlink" x="0px" y="0px"
	 viewBox="0 0 512 512" style="enable-background:new 0 0 512 512;" xml:space="preserve">
<g>
	<g>
		<path d="M63.723,136.119c-13.241,0-24.012,10.772-24.012,24.013s10.771,24.012,24.012,24.012s24.013-10.772,24.013-24.012
			S76.964,136.119,63.723,136.119z M63.723,168.134c-4.414,0-8.004-3.59-8.004-8.003s3.59-8.004,8.004-8.004s8.004,3.59,8.004,8.004
			C71.727,164.545,68.137,168.134,63.723,168.134z"/>
	</g>
</g>
<g>
	<g>
		<path d="M187.786,56.078c-19.861,0-36.018,16.157-36.018,36.018c0,19.86,16.158,36.018,36.018,36.018s36.017-16.157,36.017-36.018
			C223.804,72.236,207.646,56.078,187.786,56.078z M187.786,112.106c-11.034,0-20.01-8.977-20.01-20.01
			c0-11.033,8.977-20.01,20.01-20.01s20.009,8.977,20.009,20.01C207.795,103.13,198.819,112.106,187.786,112.106z"/>
	</g>
</g>
<g>
	<g>
		<path d="M335.862,168.133c-13.241,0-24.013,10.772-24.013,24.013c0,13.241,10.772,24.013,24.013,24.013
			s24.013-10.772,24.013-24.013C359.874,178.905,349.102,168.133,335.862,168.133z M335.862,200.151
			c-4.414,0-8.004-3.59-8.004-8.004c0-4.414,3.59-8.004,8.004-8.004s8.004,3.59,8.004,8.004
			C343.866,196.561,340.275,200.151,335.862,200.151z"/>
	</g>
</g>
<g>
	<g>
		<path d="M207.798,296.199c-13.241,0-24.013,10.772-24.013,24.013s10.772,24.013,24.013,24.013
			c13.24,0,24.012-10.772,24.012-24.013S221.037,296.199,207.798,296.199z M207.798,328.216c-4.414,0-8.004-3.59-8.004-8.004
			c0-4.414,3.59-8.004,8.004-8.004c4.413,0,8.003,3.59,8.003,8.004C215.801,324.626,212.21,328.216,207.798,328.216z"/>
	</g>
</g>
<g>
	<g>
		<path d="M111.748,320.212c-13.241,0-24.013,10.772-24.013,24.013c0,13.241,10.772,24.012,24.013,24.012
			s24.013-10.772,24.013-24.012C135.761,330.985,124.989,320.212,111.748,320.212z M111.748,352.228
			c-4.414,0-8.004-3.59-8.004-8.003s3.59-8.004,8.004-8.004c4.414,0,8.004,3.59,8.004,8.004S116.162,352.228,111.748,352.228z"/>
	</g>
</g>
<g>
	<g>
		<path d="M175.781,376.24c-13.241,0-24.013,10.772-24.013,24.013c0,13.241,10.772,24.013,24.013,24.013
			c13.241,0,24.013-10.772,24.013-24.013C199.793,387.012,189.021,376.24,175.781,376.24z M175.781,408.256
			c-4.414,0-8.004-3.59-8.004-8.004c0-4.414,3.59-8.004,8.004-8.004c4.414,0,8.004,3.59,8.004,8.004
			C183.785,404.666,180.195,408.256,175.781,408.256z"/>
	</g>
</g>
<g>
	<g>
		<path d="M455.922,384.243c-13.241,0-24.013,10.772-24.013,24.013s10.772,24.013,24.013,24.013s24.013-10.772,24.013-24.013
			S469.163,384.243,455.922,384.243z M455.922,416.26c-4.414,0-8.004-3.59-8.004-8.004s3.59-8.004,8.004-8.004
			c4.414,0,8.004,3.59,8.004,8.004S460.336,416.26,455.922,416.26z"/>
	</g>
</g>
<g>
	<g>
		<path d="M375.883,304.204c-13.241,0-24.013,10.772-24.013,24.013s10.772,24.013,24.013,24.013
			c13.24,0,24.011-10.772,24.011-24.013S389.122,304.204,375.883,304.204z M375.883,336.219c-4.414,0-8.004-3.59-8.004-8.004
			c0-4.414,3.59-8.004,8.004-8.004c4.413,0,8.003,3.59,8.003,8.004C383.886,332.629,380.295,336.219,375.883,336.219z"/>
	</g>
</g>
<g>
	<g>
		<path d="M375.883,32.065c-13.241,0-24.013,10.772-24.013,24.013s10.772,24.013,24.013,24.013c13.24,0,24.011-10.772,24.011-24.013
			S389.122,32.065,375.883,32.065z M375.883,64.082c-4.414,0-8.004-3.59-8.004-8.004c0-4.414,3.59-8.004,8.004-8.004
			c4.413,0,8.003,3.59,8.003,8.004C383.886,60.492,380.295,64.082,375.883,64.082z"/>
	</g>
</g>
<g>
	<g>
		<rect y="448" width="15.738" height="15.738"/>
	</g>
</g>
<g>
	<g>
		<rect x="23.082" y="448" width="49.311" height="15.738"/>
	</g>
</g>
<g>
	<g>
		<rect y="473.18" width="15.738" height="15.738"/>
	</g>
</g>
<g>
	<g>
		<rect x="23.082" y="473.18" width="49.311" height="15.738"/>
	</g>
</g>
<g>
	<g>
		<rect y="496.262" width="15.738" height="15.738"/>
	</g>
</g>
<g>
	<g>
		<rect x="23.082" y="496.262" width="49.311" height="15.738"/>
	</g>
</g>
<g>
	<g>
		<polygon points="496.262,240.262 496.262,248.656 472.131,248.656 472.131,240.262 456.393,240.262 456.393,248.656 
			432.262,248.656 432.262,240.262 416.525,240.262 416.525,248.656 391.344,248.656 391.344,240.262 375.607,240.262 
			375.607,248.656 351.475,248.656 351.475,240.262 335.738,240.262 335.738,248.656 311.607,248.656 311.607,240.262 
			295.869,240.262 295.869,248.656 263.344,248.656 263.344,216.131 271.738,216.131 271.738,200.393 263.344,200.393 
			263.344,176.262 271.738,176.262 271.738,160.525 263.344,160.525 263.344,136.393 271.738,136.393 271.738,120.656 
			263.344,120.656 263.344,95.475 271.738,95.475 271.738,79.738 263.344,79.738 263.344,55.607 271.738,55.607 271.738,39.869 
			263.344,39.869 263.344,15.738 271.738,15.738 271.738,0 263.344,0 247.607,0 240.262,0 240.262,15.738 247.607,15.738 
			247.607,39.869 240.262,39.869 240.262,55.607 247.607,55.607 247.607,79.738 240.262,79.738 240.262,95.475 247.607,95.475 
			247.607,120.656 240.262,120.656 240.262,136.393 247.607,136.393 247.607,160.525 240.262,160.525 240.262,176.262 
			247.607,176.262 247.607,200.393 240.262,200.393 240.262,216.131 247.607,216.131 247.607,248.656 216.131,248.656 
			216.131,240.262 200.393,240.262 200.393,248.656 175.213,248.656 175.213,240.262 159.475,240.262 159.475,248.656 
			135.344,248.656 135.344,240.262 119.607,240.262 119.607,248.656 95.475,248.656 95.475,240.262 79.738,240.262 79.738,248.656 
			54.557,248.656 54.557,240.262 38.82,240.262 38.82,248.656 15.738,248.656 15.738,240.262 0,240.262 0,248.656 0,264.393 
			0,271.738 15.738,271.738 15.738,264.393 38.82,264.393 38.82,271.738 54.557,271.738 54.557,264.393 79.738,264.393 
			79.738,271.738 95.475,271.738 95.475,264.393 119.607,264.393 119.607,271.738 135.344,271.738 135.344,264.393 159.475,264.393 
			159.475,271.738 175.213,271.738 175.213,264.393 200.393,264.393 200.393,271.738 216.131,271.738 216.131,264.393 
			247.607,264.393 247.607,295.869 240.262,295.869 240.262,311.607 247.607,311.607 247.607,336.787 240.262,336.787 
			240.262,352.525 247.607,352.525 247.607,376.656 240.262,376.656 240.262,392.393 247.607,392.393 247.607,416.525 
			240.262,416.525 240.262,432.262 247.607,432.262 247.607,457.443 240.262,457.443 240.262,473.18 247.607,473.18 
			247.607,496.262 240.262,496.262 240.262,512 247.607,512 263.344,512 271.738,512 271.738,496.262 263.344,496.262 
			263.344,473.18 271.738,473.18 271.738,457.443 263.344,457.443 263.344,432.262 271.738,432.262 271.738,416.525 
			263.344,416.525 263.344,392.393 271.738,392.393 271.738,376.656 263.344,376.656 263.344,352.525 271.738,352.525 
			271.738,336.787 263.344,336.787 263.344,311.607 271.738,311.607 271.738,295.869 263.344,295.869 263.344,264.393 
			295.869,264.393 295.869,271.738 311.607,271.738 311.607,264.393 335.738,264.393 335.738,271.738 351.475,271.738 
			351.475,264.393 375.607,264.393 375.607,271.738 391.344,271.738 391.344,264.393 416.525,264.393 416.525,271.738 
			432.262,271.738 432.262,264.393 456.393,264.393 456.393,271.738 472.131,271.738 472.131,264.393 496.262,264.393 
			496.262,271.738 512,271.738 512,264.393 512,248.656 512,240.262 		"/>
	</g>
</g>
<g>
	<g>
		<path d="M439.914,104.102c-22.068,0-40.021,17.954-40.021,40.021c0,22.067,17.954,40.02,40.021,40.02
			c22.067,0,40.021-17.953,40.021-40.02C479.935,122.055,461.982,104.102,439.914,104.102z M439.914,168.134
			c-13.241,0-24.013-10.772-24.013-24.012c0-13.24,10.772-24.013,24.013-24.013s24.013,10.772,24.013,24.013
			S453.155,168.134,439.914,168.134z"/>
	</g>
</g>
<g>
	<g>
		<path d="M351.87,392.248c-22.067,0-40.021,17.954-40.021,40.021s17.953,40.02,40.021,40.02c22.068,0,40.021-17.953,40.021-40.02
			S373.937,392.248,351.87,392.248z M351.87,456.28c-13.241,0-24.013-10.772-24.013-24.011c0-13.24,10.772-24.013,24.013-24.013
			c13.241,0,24.013,10.772,24.013,24.013C375.883,445.509,365.111,456.28,351.87,456.28z"/>
	</g>
</g>
<g>
</g>
<g>
</g>
<g>
</g>
<g>
</g>
<g>
</g>
<g>
</g>
<g>
</g>
<g>
</g>
<g>
</g>
<g>
</g>
<g>
</g>
<g>
</g>
<g>
</g>
<g>
</g>
<g>
</g>
</svg>
