<svg height="512" viewBox="0 0 128 128" width="512" xmlns="http://www.w3.org/2000/svg"><g><path d="m59 82.907h-31.31a14.918 14.918 0 0 0 0 3.5h31.31a14.918 14.918 0 0 0 0-3.5z" fill="#11afff"/><path d="m45.092 100.31v-31.305a15.8 15.8 0 0 0 -1.75-.1 16.06 16.06 0 0 0 -1.75.1v31.305a14.918 14.918 0 0 0 3.5 0z" fill="#11afff"/><path d="m80.378 91.435v-13.555h-8.759a28.661 28.661 0 0 0 -3.5-8.417l6.2-6.2-9.586-9.586-6.2 6.2a28.646 28.646 0 0 0 -8.417-3.5v-8.76h-13.552v8.772a28.874 28.874 0 0 0 -8.412 3.489l-6.205-6.206-9.586 9.586 6.206 6.2a28.9 28.9 0 0 0 -3.489 8.413h-8.772v13.564h8.76a28.635 28.635 0 0 0 3.5 8.417l-6.2 6.2 9.586 9.586 6.2-6.2a28.64 28.64 0 0 0 8.416 3.5v8.759h13.552v-8.771a28.869 28.869 0 0 0 8.413-3.489l6.2 6.206 9.586-9.586-6.206-6.2a28.9 28.9 0 0 0 3.489-8.413zm-37.036 8.978a15.756 15.756 0 1 1 15.758-15.756 15.756 15.756 0 0 1 -15.758 15.756z" fill="#ff6100"/><g fill="#36cef4"><path d="m121.694 36.687v-9.4h-6.074a19.9 19.9 0 0 0 -2.425-5.836l4.3-4.3-6.647-6.646-4.3 4.3a19.884 19.884 0 0 0 -5.836-2.425v-6.074h-9.4v6.083a20 20 0 0 0 -5.833 2.419l-4.3-4.3-6.649 6.643 4.3 4.3a19.99 19.99 0 0 0 -2.419 5.834h-6.08v9.4h6.074a19.863 19.863 0 0 0 2.425 5.837l-4.3 4.3 6.646 6.646 4.3-4.3a19.868 19.868 0 0 0 5.836 2.432v6.074h9.4v-6.088a20 20 0 0 0 5.834-2.419l4.3 4.3 6.647-6.646-4.3-4.3a20.017 20.017 0 0 0 2.419-5.834zm-25.682 5.53a10.23 10.23 0 1 1 10.23-10.229 10.229 10.229 0 0 1 -10.23 10.229z"/><path d="m49.03 84.657a5.688 5.688 0 1 1 -5.688-5.687 5.687 5.687 0 0 1 5.688 5.687z"/></g></g></svg>