<?xml version="1.0" encoding="iso-8859-1"?>
<!-- Generator: Adobe Illustrator 19.0.0, SVG Export Plug-In . SVG Version: 6.00 Build 0)  -->
<svg version="1.1" id="Capa_1" xmlns="http://www.w3.org/2000/svg" xmlns:xlink="http://www.w3.org/1999/xlink" x="0px" y="0px"
	 viewBox="0 0 512 512" style="enable-background:new 0 0 512 512;" xml:space="preserve">
<rect x="102.4" y="307.2" style="fill:#FBE096;" width="102.4" height="102.4"/>
<rect x="102.4" y="307.2" style="opacity:0.1;enable-background:new    ;" width="102.4" height="102.4"/>
<g>
	<path style="fill:#79C6E4;" d="M289.743,409.6H204.8V307.2h102.4v84.943C307.2,401.784,299.384,409.6,289.743,409.6z"/>
	<path style="fill:#79C6E4;" d="M204.8,307.2H102.4v-84.943c0-9.641,7.816-17.457,17.457-17.457H204.8V307.2z"/>
</g>
<rect x="204.8" y="204.8" style="fill:#FBE096;" width="102.4" height="102.4"/>
<path style="fill:#79C6E4;" d="M392.143,307.2H307.2V204.8h102.4v84.943C409.6,299.384,401.784,307.2,392.143,307.2z"/>
<path style="opacity:0.1;enable-background:new    ;" d="M392.143,307.2H307.2V204.8h102.4v84.943
	C409.6,299.384,401.784,307.2,392.143,307.2z"/>
<path style="fill:#79C6E4;" d="M307.2,204.8H204.8v-84.943c0-9.641,7.816-17.457,17.457-17.457H307.2V204.8z"/>
<rect x="307.2" y="102.4" style="fill:#FBE096;" width="102.4" height="102.4"/>
<path style="fill:#79C6E4;" d="M409.6,102.4H307.2V17.457C307.2,7.816,315.016,0,324.657,0H409.6V102.4z"/>
<path style="fill:#FBE096;" d="M84.943,512H17.457C7.816,512,0,504.184,0,494.543v-67.487c0-9.641,7.816-17.457,17.457-17.457H102.4
	v84.943C102.4,504.184,94.584,512,84.943,512z"/>
<path style="opacity:0.1;enable-background:new    ;" d="M84.943,512H17.457C7.816,512,0,504.184,0,494.543v-67.487
	c0-9.641,7.816-17.457,17.457-17.457H102.4v84.943C102.4,504.184,94.584,512,84.943,512z"/>
<g>
	<path style="fill:#79C6E4;" d="M494.543,204.8H409.6V102.4H512v84.943C512,196.984,504.184,204.8,494.543,204.8z"/>
	<path style="fill:#79C6E4;" d="M512,102.4H409.6V0h84.943C504.184,0,512,7.816,512,17.457V102.4z"/>
</g>
<path style="opacity:0.1;enable-background:new    ;" d="M512,102.4H409.6V0h84.943C504.184,0,512,7.816,512,17.457V102.4z"/>
<g>
</g>
<g>
</g>
<g>
</g>
<g>
</g>
<g>
</g>
<g>
</g>
<g>
</g>
<g>
</g>
<g>
</g>
<g>
</g>
<g>
</g>
<g>
</g>
<g>
</g>
<g>
</g>
<g>
</g>
</svg>
