<?xml version="1.0" standalone="no"?>
<svg version="1.0" xmlns="http://www.w3.org/2000/svg"
 width="512.000000pt" height="512.000000pt" viewBox="0 0 512.000000 512.000000"
 preserveAspectRatio="xMidYMid meet">

<g transform="translate(0.000000,512.000000) scale(0.100000,-0.100000)"
stroke="none">
<path d="M602 4429 l-442 -531 0 -864 0 -864 1086 -1002 1086 -1003 228 0 228
0 1085 1000 1086 1000 0 866 1 867 -442 531 -443 531 -550 0 -550 0 -207 -207
-208 -208 -208 208 -207 207 -550 0 -550 0 -443 -531z m1685 -61 l273 -273
273 273 272 272 410 0 410 0 358 -429 357 -429 0 -736 0 -736 -991 -915 -991
-915 -98 0 -98 0 -991 915 -991 915 0 736 0 736 357 429 358 429 410 0 410 0
272 -272z"/>
<path d="M3773 4318 l-121 -101 254 -304 254 -305 0 -364 0 -364 160 0 160 0
0 423 0 422 -271 325 c-149 179 -280 335 -292 347 l-22 22 -122 -101z"/>
</g>
</svg>
