<?xml version="1.0" standalone="no"?>
<svg version="1.0" xmlns="http://www.w3.org/2000/svg"
 width="512.000000pt" height="512.000000pt" viewBox="0 0 512.000000 512.000000"
 preserveAspectRatio="xMidYMid meet">

<g transform="translate(0.000000,512.000000) scale(0.100000,-0.100000)"
stroke="none">
<path d="M2515 5108 c-11 -6 -25 -19 -32 -27 -10 -13 -12 -568 -13 -2522 0
-2503 0 -2505 20 -2527 24 -25 60 -37 88 -28 11 4 585 572 1276 1264 l1257
1256 -3 38 c-3 36 -72 108 -1228 1269 -674 677 -1243 1244 -1264 1260 -42 31
-69 35 -101 17z"/>
<path d="M1675 4665 l-25 -24 0 -275 0 -274 31 -27 32 -26 269 3 270 3 24 28
24 28 0 260 c0 272 -5 307 -45 323 -9 3 -138 6 -286 6 l-270 0 -24 -25z"/>
<path d="M855 3845 l-25 -24 0 -270 c0 -148 3 -277 6 -286 16 -40 51 -45 323
-45 l260 0 28 24 28 24 3 270 3 269 -26 32 -27 31 -274 0 -275 0 -24 -25z"/>
<path d="M1675 3845 l-25 -24 0 -273 c1 -199 4 -277 13 -289 28 -36 52 -39
317 -39 l262 0 29 29 29 29 0 262 c0 265 -3 289 -39 317 -12 9 -90 12 -289 13
l-273 0 -24 -25z"/>
<path d="M35 3025 l-25 -24 0 -446 0 -446 25 -24 24 -25 270 0 270 0 28 24 28
24 0 447 0 447 -28 24 -28 24 -270 0 -270 0 -24 -25z"/>
<path d="M855 3025 l-25 -24 0 -446 0 -446 25 -24 24 -25 270 0 270 0 28 24
28 24 0 447 0 447 -28 24 -28 24 -270 0 -270 0 -24 -25z"/>
<path d="M1675 3025 l-25 -24 0 -446 0 -446 25 -24 24 -25 271 0 272 0 29 29
29 29 0 437 0 437 -29 29 -29 29 -272 0 -271 0 -24 -25z"/>
<path d="M875 1878 c-43 -25 -44 -31 -45 -316 l0 -273 25 -24 24 -25 275 0
274 0 27 31 26 32 -3 268 c-3 264 -3 269 -26 291 -22 23 -27 23 -290 25 -190
2 -273 0 -287 -9z"/>
<path d="M1681 1865 l-31 -27 0 -274 0 -275 25 -24 24 -25 273 0 c199 1 277 4
289 13 36 28 39 52 39 316 l0 260 -24 28 -24 28 -270 3 -269 3 -32 -26z"/>
<path d="M1704 1060 c-52 -21 -54 -34 -54 -323 l0 -268 25 -24 24 -25 276 0
c260 0 276 1 295 20 11 11 22 30 25 42 3 13 5 139 3 280 -3 253 -3 258 -26
280 -22 23 -27 23 -285 25 -144 1 -272 -2 -283 -7z"/>
</g>
</svg>
