<?xml version="1.0" encoding="iso-8859-1"?>
<!-- Generator: Adobe Illustrator 19.0.0, SVG Export Plug-In . SVG Version: 6.00 Build 0)  -->
<svg version="1.1" id="Capa_1" xmlns="http://www.w3.org/2000/svg" xmlns:xlink="http://www.w3.org/1999/xlink" x="0px" y="0px"
	 viewBox="0 0 512 512" style="enable-background:new 0 0 512 512;" xml:space="preserve">
<g>
	<g>
		<path d="M487.555,0h-164.91C309.166,0,298.2,10.966,298.2,24.445v9.938c0,4.142,3.358,7.5,7.5,7.5c4.142,0,7.5-3.358,7.5-7.5
			v-9.938c0-5.208,4.237-9.445,9.445-9.445H397.6v84.4h-84.4V74.047c0-4.142-3.358-7.5-7.5-7.5c-4.142,0-7.5,3.358-7.5,7.5V99.4
			h-74.955c-13.479,0-24.445,10.966-24.445,24.445V198.8h-74.955c-13.479,0-24.445,10.966-24.445,24.445v15.797
			c0,4.142,3.358,7.5,7.5,7.5c4.142,0,7.5-3.358,7.5-7.5v-15.797c0-5.208,4.237-9.445,9.445-9.445H198.8v84.4h-84.4v-19.286
			c0-4.142-3.358-7.5-7.5-7.5c-4.142,0-7.5,3.358-7.5,7.5V397.6H24.445C10.966,397.6,0,408.566,0,422.045v65.509
			C0,501.034,10.966,512,24.445,512h65.509c13.479,0,24.445-10.966,24.445-24.445V412.6h127.774c4.142,0,7.5-3.358,7.5-7.5
			c0-4.142-3.358-7.5-7.5-7.5H213.8v-84.4h84.4v74.955c0,5.208-4.237,9.445-9.445,9.445h-6.154c-4.142,0-7.5,3.358-7.5,7.5
			c0,4.142,3.358,7.5,7.5,7.5h6.154c13.479,0,24.445-10.966,24.445-24.445V313.2h74.955c13.479,0,24.445-10.966,24.445-24.445V213.8
			h74.955c13.479,0,24.445-10.966,24.445-24.445V24.445C512,10.966,501.034,0,487.555,0z M99.4,487.555
			c0,5.208-4.237,9.445-9.445,9.445h-65.51c-5.208,0-9.445-4.237-9.445-9.445v-65.509c0-5.208,4.237-9.445,9.445-9.445H99.4V487.555
			z M198.8,397.6h-84.4v-84.4h84.4V397.6z M298.2,298.2h-84.4v-84.4h84.4V298.2z M298.2,198.8h-84.4v-74.955
			c0-5.208,4.237-9.445,9.445-9.445H298.2V198.8z M397.6,288.755c0,5.208-4.237,9.445-9.445,9.445H313.2v-84.4h84.4V288.755z
			 M397.6,198.8h-84.4v-84.4h84.4V198.8z M497,189.355c0,5.208-4.237,9.445-9.445,9.445H412.6v-84.4H497V189.355z M497,99.4h-84.4
			V15h74.955c5.208,0,9.445,4.237,9.445,9.445V99.4z"/>
	</g>
</g>
<g>
</g>
<g>
</g>
<g>
</g>
<g>
</g>
<g>
</g>
<g>
</g>
<g>
</g>
<g>
</g>
<g>
</g>
<g>
</g>
<g>
</g>
<g>
</g>
<g>
</g>
<g>
</g>
<g>
</g>
</svg>
